<?xml version="1.0" standalone="no"?>
<!DOCTYPE svg PUBLIC "-//W3C//DTD SVG 20010904//EN"
 "http://www.w3.org/TR/2001/REC-SVG-20010904/DTD/svg10.dtd">
<svg version="1.0" xmlns="http://www.w3.org/2000/svg"
 width="934.000000pt" height="829.000000pt" viewBox="0 0 934.000000 829.000000"
 preserveAspectRatio="xMidYMid meet">

<g transform="translate(0.000000,829.000000) scale(0.100000,-0.100000)"
fill="#000000" stroke="none">
<path d="M4577 8248 l-107 -41 -287 -476 c-157 -262 -291 -484 -298 -493 -10
-16 -16 -14 -69 17 -31 19 -59 35 -61 35 -5 0 -45 -70 -45 -79 0 -5 44 -35 98
-66 53 -32 99 -59 100 -61 2 -1 -4 -17 -14 -34 -16 -27 -22 -30 -49 -23 -43
10 -84 6 -110 -11 -13 -9 -54 -66 -91 -127 -59 -99 -67 -118 -66 -160 0 -33
-4 -49 -14 -53 -26 -10 -54 -69 -54 -117 0 -80 67 -149 145 -149 66 0 145 71
145 129 0 21 8 29 45 45 l45 18 128 -78 c70 -42 168 -102 218 -132 l91 -55 6
-221 c4 -122 9 -235 13 -251 5 -30 4 -31 -44 -43 -96 -25 -186 -107 -228 -207
l-14 -35 55 0 c30 0 55 4 55 9 0 4 19 29 41 55 41 46 89 77 140 89 25 6 28 3
48 -46 12 -28 31 -65 44 -80 20 -26 27 -28 80 -25 l59 3 -31 39 c-17 21 -42
62 -56 91 -48 102 -57 163 -64 428 l-6 249 -275 168 c-151 93 -280 169 -286
170 -5 0 -20 -13 -32 -30 -29 -38 -55 -38 -115 0 -37 23 -45 33 -39 48 13 34
107 182 117 186 6 2 171 -90 366 -205 195 -115 359 -209 365 -209 5 0 25 15
43 34 38 39 137 91 194 101 42 8 41 10 23 -41 -21 -62 -27 -136 -16 -212 19
-137 63 -234 172 -381 43 -57 75 -107 72 -112 -3 -5 -15 -9 -27 -9 -39 0 -145
-57 -190 -102 -45 -46 -92 -130 -103 -185 l-6 -33 48 0 49 0 17 48 c20 55 82
123 140 153 51 26 134 35 181 20 43 -14 122 -97 163 -168 l29 -53 53 0 c28 0
52 2 52 5 0 16 -64 128 -104 183 -45 61 -46 62 -20 62 57 0 118 54 130 116 9
50 -11 89 -88 171 -72 76 -86 113 -49 133 12 6 99 10 215 10 l195 0 20 -26
c17 -22 21 -41 21 -108 l0 -81 -177 -178 -178 -178 172 3 c191 3 202 7 251 79
23 33 23 37 20 266 l-3 232 -30 32 c-52 55 -73 59 -302 59 -197 0 -210 -2
-247 -23 -21 -12 -47 -38 -57 -57 -38 -71 -18 -134 76 -231 36 -37 65 -70 65
-74 0 -20 -23 -44 -47 -49 -33 -7 -133 17 -168 40 -68 44 -106 226 -70 333 22
66 102 155 207 228 121 85 178 162 178 242 0 19 -6 21 -50 21 -44 0 -50 -3
-50 -20 0 -52 -36 -91 -179 -194 -123 -89 -188 -179 -215 -294 l-13 -57 -20
55 c-50 134 -53 240 -9 335 13 27 55 91 95 140 97 122 131 192 138 286 4 60 1
86 -17 139 -12 35 -30 76 -41 91 -10 15 -19 30 -19 34 0 4 48 5 108 3 124 -4
165 -19 213 -79 l31 -39 -81 0 c-45 0 -81 -3 -81 -6 0 -3 36 -50 80 -104 44
-54 80 -101 80 -104 0 -3 -31 -6 -69 -8 l-70 -3 37 -47 36 -48 139 0 c76 0
136 3 134 8 -3 4 -39 50 -81 102 -42 52 -76 98 -76 102 0 4 40 9 89 10 l90 3
-116 128 c-87 96 -127 132 -164 149 l-49 23 0 139 c0 163 -12 200 -86 265 -43
38 -116 71 -156 71 -23 0 -23 5 2 30 45 45 11 120 -54 120 -76 0 -100 -89 -37
-137 14 -11 12 -12 -14 -13 -70 -1 -170 -66 -212 -138 -26 -44 -28 -55 -32
-189 -3 -139 -4 -141 -27 -147 -13 -4 -34 -20 -46 -36 -21 -29 -24 -30 -104
-30 -67 0 -86 -4 -108 -21 -26 -20 -26 -21 -26 -160 l0 -139 98 0 c106 0 127
-8 137 -50 11 -46 -15 -64 -95 -70 l-71 -5 33 -42 c30 -40 36 -43 81 -43 95 0
147 53 147 151 0 100 -64 159 -172 159 l-58 0 0 60 0 60 90 0 89 0 17 33 c23
44 29 47 102 47 64 0 122 -18 155 -48 33 -29 69 -113 74 -172 8 -79 -15 -138
-88 -236 l-60 -82 -61 -6 c-89 -11 -177 -41 -247 -86 l-62 -40 -267 156 c-147
86 -271 160 -276 164 -8 8 24 73 34 68 3 -2 49 -29 102 -61 53 -33 101 -57
105 -54 16 10 48 80 38 84 -6 2 -33 18 -62 36 l-52 32 297 492 297 492 -14
121 c-8 66 -18 120 -21 119 -3 0 -53 -19 -113 -41z m41 -142 c3 -33 -26 -85
-274 -496 -152 -253 -282 -467 -289 -476 -11 -16 -15 -16 -51 6 -21 13 -40 24
-42 26 -2 1 125 215 282 475 235 391 291 477 318 491 43 23 52 19 56 -26z
m342 -415 c0 -78 0 -79 -31 -91 -36 -15 -106 1 -116 26 -11 28 25 83 74 114
70 45 73 42 73 -49z m149 59 c52 -26 93 -76 89 -109 -4 -35 -73 -61 -112 -43
-25 11 -26 15 -26 92 0 44 2 80 5 80 3 0 23 -9 44 -20z m1 -254 c25 -1 55 3
68 7 21 8 22 6 22 -48 l0 -55 -192 2 -193 3 -3 53 -3 53 28 -8 c44 -12 105 -9
138 8 27 14 33 14 60 1 17 -8 50 -16 75 -16z m-1426 -899 c28 -21 18 -69 -18
-82 -24 -8 -31 -6 -47 13 -19 24 -16 49 9 70 20 15 34 15 56 -1z m2038 -776
c-14 -19 -30 -27 -58 -29 l-39 -3 55 56 c54 55 55 56 58 29 2 -16 -5 -38 -16
-53z"/>
<path d="M4750 7165 c0 -22 41 -55 70 -55 32 0 66 23 73 50 5 19 1 20 -69 20
-58 0 -74 -3 -74 -15z"/>
<path d="M1900 6344 c-128 -35 -235 -141 -274 -273 -22 -74 -23 -479 -2 -559
30 -112 104 -200 214 -254 64 -32 70 -33 232 -38 137 -5 173 -9 211 -27 50
-22 119 -79 119 -97 0 -17 -68 -80 -110 -102 -32 -18 -73 -19 -520 -25 -539
-6 -536 -5 -637 -75 -30 -21 -72 -62 -94 -93 -63 -87 -71 -128 -76 -357 -5
-220 4 -317 39 -390 33 -72 111 -149 186 -186 l67 -33 485 -5 c480 -5 486 -5
536 -28 28 -13 68 -41 90 -63 l38 -39 -38 -39 c-66 -68 -118 -83 -297 -91
-149 -6 -159 -7 -221 -38 -79 -38 -149 -110 -186 -190 l-27 -57 0 -280 0 -280
27 -57 c46 -99 135 -179 241 -215 24 -9 107 -18 197 -22 128 -6 162 -11 195
-28 56 -30 110 -89 159 -174 47 -83 66 -100 91 -79 15 12 16 37 13 219 l-3
206 -31 66 c-52 109 -127 177 -237 217 -26 9 -101 17 -197 21 -146 6 -158 9
-208 36 -30 16 -65 42 -78 59 l-25 29 38 39 c67 69 107 81 284 88 147 6 159 8
222 38 82 38 153 107 193 187 l29 60 0 285 0 285 -28 56 c-43 88 -98 143 -185
186 l-76 38 -485 5 c-531 5 -515 4 -596 66 -57 43 -62 61 -28 96 15 17 55 43
88 59 l60 29 447 0 c289 0 466 4 500 11 151 32 273 151 308 301 16 73 13 464
-6 533 -30 118 -100 202 -212 257 -64 32 -70 33 -231 38 -137 5 -174 10 -212
27 -53 24 -119 79 -119 100 0 23 59 73 120 102 l55 26 535 5 535 5 57 27 c133
62 218 186 226 329 l5 79 -674 -1 c-560 0 -683 -3 -729 -15z m1300 -96 c0 -32
-51 -117 -93 -155 -88 -81 -56 -77 -657 -83 -528 -5 -536 -5 -591 -28 -32 -12
-78 -41 -103 -63 l-46 -41 0 79 c0 95 26 157 92 221 87 84 60 81 771 82 495 0
627 -3 627 -12z m-1353 -645 c53 -25 72 -28 223 -33 141 -6 172 -10 210 -28
72 -35 116 -77 149 -144 26 -52 31 -73 31 -135 l0 -74 -52 40 c-89 66 -115 73
-298 81 -147 5 -171 9 -220 31 -78 36 -114 71 -149 141 -26 52 -31 73 -31 135
l0 75 39 -31 c22 -17 66 -43 98 -58z m598 -784 c-21 -61 -91 -140 -153 -171
-47 -23 -49 -23 -532 -28 -473 -5 -486 -6 -540 -28 -30 -12 -79 -40 -107 -62
l-53 -40 0 65 c0 134 76 250 193 294 56 20 72 21 505 21 372 0 458 3 507 15
61 16 138 59 171 96 19 21 19 21 22 -46 2 -42 -3 -85 -13 -116z m-1260 -603
c84 -41 152 -46 606 -46 482 0 484 0 568 -76 64 -57 93 -124 99 -229 l4 -80
-28 26 c-44 40 -88 68 -136 86 -38 15 -103 18 -528 23 -484 5 -485 5 -532 29
-62 30 -126 94 -151 151 -13 29 -22 75 -25 128 l-5 83 39 -35 c21 -19 61 -46
89 -60z m1273 -683 c-6 -103 -36 -170 -99 -227 -65 -59 -120 -76 -238 -76
-174 0 -273 -28 -354 -100 -19 -16 -38 -30 -42 -30 -16 0 2 146 24 195 29 65
91 128 155 156 42 19 77 24 201 29 98 5 165 13 193 23 45 17 120 65 141 91 8
9 16 16 19 16 2 0 2 -35 0 -77z m-576 -725 c41 -16 87 -22 208 -27 182 -7 221
-21 294 -102 54 -60 76 -121 76 -213 l0 -70 -27 26 c-90 82 -142 99 -333 107
-178 8 -218 21 -286 90 -59 59 -85 120 -92 215 l-5 79 56 -42 c31 -23 80 -52
109 -63z"/>
<path d="M3675 6350 c-11 -4 -31 -20 -45 -35 -24 -25 -25 -33 -28 -168 -3
-159 2 -177 58 -215 31 -21 44 -23 117 -20 90 3 121 18 158 76 l20 31 138 1
137 0 0 50 0 50 -185 0 -185 0 0 -38 c0 -57 -23 -74 -96 -70 l-59 3 0 120 0
120 278 5 277 5 -78 48 -78 47 -204 -1 c-113 0 -214 -4 -225 -9z"/>
<path d="M6034 6290 c11 -126 66 -229 155 -294 101 -74 67 -70 661 -76 604 -7
589 -5 678 -85 l47 -43 -39 -41 c-67 -69 -116 -84 -306 -91 -154 -6 -169 -8
-225 -35 -76 -36 -153 -113 -191 -190 l-29 -60 0 -280 0 -280 31 -65 c54 -115
159 -197 283 -220 31 -6 238 -10 492 -10 501 0 506 -1 587 -83 l42 -43 -37
-36 c-21 -20 -58 -46 -83 -59 l-45 -24 -485 -5 c-483 -5 -485 -5 -545 -29 -83
-33 -183 -133 -216 -216 -23 -58 -24 -68 -24 -325 0 -257 1 -267 24 -325 18
-44 42 -78 90 -126 94 -94 141 -110 341 -119 140 -6 160 -9 205 -32 28 -15 65
-42 83 -60 l33 -35 -46 -42 c-71 -65 -99 -74 -275 -82 -122 -5 -167 -11 -210
-28 -72 -28 -136 -79 -183 -148 -60 -89 -68 -131 -65 -359 l3 -199 24 0 c21 0
33 15 74 85 61 106 86 133 161 170 54 28 68 30 165 30 131 0 207 12 274 43 82
38 141 98 184 185 l38 76 3 241 c4 272 -3 317 -60 412 -37 62 -109 125 -178
156 -36 16 -76 21 -200 27 -136 6 -162 9 -210 32 -67 31 -120 74 -120 98 0 24
52 67 120 99 l55 26 485 5 485 5 55 27 c110 54 183 139 215 250 14 48 16 98
13 305 -3 231 -5 252 -26 305 -48 118 -172 216 -302 237 -38 7 -245 11 -501
11 l-436 0 -59 30 c-33 16 -73 43 -89 60 l-29 30 35 36 c19 20 57 47 84 62 46
23 65 26 215 32 185 8 227 19 305 78 63 48 108 107 135 179 20 54 21 71 18
327 l-3 271 -29 60 c-54 109 -156 189 -274 214 -36 7 -264 11 -719 11 l-666 0
7 -70z m1422 -59 c110 -52 174 -158 174 -287 l0 -66 -37 32 c-20 18 -67 47
-103 64 l-65 31 -535 5 c-516 5 -537 6 -580 26 -83 38 -146 110 -170 193 l-9
31 632 0 632 0 61 -29z m172 -613 c-5 -97 -33 -160 -95 -220 -69 -67 -116 -80
-303 -88 -149 -5 -171 -9 -221 -32 -31 -14 -76 -43 -99 -64 l-43 -39 5 80 c6
97 32 163 90 222 70 71 117 85 309 92 160 6 168 8 230 38 35 18 77 46 93 62
17 17 32 31 34 31 3 0 2 -37 0 -82z m-634 -705 c77 -40 116 -43 577 -43 515 0
515 0 602 -80 67 -61 97 -126 104 -226 6 -75 -1 -90 -28 -58 -20 24 -89 68
-139 90 -42 17 -82 19 -535 24 l-490 5 -54 30 c-100 55 -150 139 -159 268 l-5
79 48 -36 c26 -20 62 -44 79 -53z m1283 -689 c-4 -42 -16 -95 -26 -119 -28
-62 -93 -129 -154 -156 -52 -24 -54 -24 -537 -29 -476 -5 -486 -5 -533 -27
-27 -13 -71 -39 -98 -59 l-49 -36 0 74 c0 122 64 223 174 274 l51 24 430 0
c237 0 459 5 494 10 72 10 175 56 211 95 38 40 44 32 37 -51z m-1250 -716 c40
-18 74 -23 203 -28 126 -5 164 -10 201 -27 66 -30 114 -76 149 -145 25 -52 30
-73 30 -134 l0 -74 -52 40 c-86 65 -142 81 -303 87 -167 5 -210 18 -279 82
-68 64 -96 127 -96 219 l0 74 49 -36 c27 -20 71 -46 98 -58z m568 -778 c-21
-63 -84 -134 -149 -167 -46 -24 -65 -27 -206 -34 -193 -8 -216 -15 -319 -92
l-54 -40 5 79 c9 128 67 222 170 275 37 19 66 24 198 29 95 5 171 13 197 22
54 20 123 60 148 88 l20 22 3 -67 c2 -42 -3 -85 -13 -115z"/>
<path d="M2724 5487 c-2 -7 -3 -632 -1 -1388 3 -986 7 -1390 15 -1430 82 -399
292 -688 617 -851 96 -49 302 -124 540 -198 452 -139 459 -142 639 -264 71
-48 135 -85 143 -82 7 3 62 39 123 81 148 103 235 141 505 224 418 128 611
199 730 268 272 159 451 399 538 721 l32 117 3 1408 3 1407 -1941 0 c-1590 0
-1942 -2 -1946 -13z m1704 -594 c1 -277 0 -503 -2 -503 -3 0 -38 18 -78 40
-41 22 -107 47 -147 56 -54 12 -71 20 -67 31 12 30 34 120 39 156 l6 37 -132
0 c-121 0 -135 -2 -174 -25 l-43 -24 0 65 0 64 179 0 180 0 -16 38 c-56 132
-56 252 0 385 l16 37 -387 -2 -387 -3 -20 -57 -19 -57 -110 -3 -109 -3 -15
-40 c-20 -53 -20 -197 0 -250 l15 -40 106 -3 107 -3 0 -59 0 -60 -36 0 c-20 0
-112 10 -205 21 -94 12 -172 19 -175 17 -3 -3 -6 -25 -7 -49 l-2 -44 87 -10
c48 -6 89 -13 91 -15 2 -3 9 -18 14 -35 6 -16 14 -38 18 -47 6 -14 2 -18 -16
-18 -64 -1 -244 -90 -288 -144 -7 -9 -17 -16 -22 -16 -5 0 -9 235 -9 535 l0
535 803 -2 802 -3 3 -502z m2082 -29 l0 -535 -47 39 c-63 51 -125 86 -194 107
l-55 17 23 80 c13 44 23 93 23 109 l0 29 -132 0 c-116 0 -137 -3 -163 -20 -49
-32 -56 -27 -53 38 l3 57 178 3 c165 2 178 4 172 20 -64 167 -64 257 0 425 7
16 -15 17 -378 17 l-385 0 -19 -57 -20 -58 -110 -3 -110 -3 -16 -53 c-21 -67
-22 -153 -1 -228 l17 -58 113 0 114 0 0 -60 0 -60 -42 0 c-23 0 -120 10 -216
21 -95 12 -175 20 -177 18 -2 -2 -5 -24 -6 -49 l-4 -45 90 -12 c50 -6 91 -12
93 -12 3 -1 16 -34 26 -67 6 -19 2 -22 -46 -28 -75 -10 -162 -42 -224 -81
l-54 -35 0 510 0 510 800 0 800 0 0 -536z m-1700 -314 l0 -840 850 0 850 0 0
-145 0 -145 -850 0 -850 0 0 -970 0 -969 -60 -41 c-33 -22 -66 -43 -74 -46 -9
-3 -46 15 -85 43 l-71 48 0 967 0 968 -847 2 -848 3 -3 143 -3 142 851 0 850
0 0 840 0 840 145 0 145 0 0 -840z m-1105 470 l0 -130 -111 0 -111 0 -7 31
c-3 17 -6 62 -6 99 0 37 3 82 6 99 l7 31 111 0 111 0 0 -130z m331 65 c-6 -42
-6 -88 0 -130 l10 -65 -113 0 -113 0 -7 28 c-5 15 -8 61 -8 102 0 41 3 87 8
103 l7 27 113 0 113 0 -10 -65z m1750 0 c-6 -42 -6 -88 0 -130 l10 -65 -113 0
-113 0 -7 28 c-5 15 -8 61 -8 102 0 41 3 87 8 103 l7 27 113 0 113 0 -10 -65z
m339 -65 l0 -130 -108 0 -107 0 -11 28 c-12 29 -8 199 4 220 6 8 40 12 115 12
l107 0 0 -130z m-2755 -29 c0 -21 3 -53 6 -70 l7 -31 -76 0 c-83 0 -87 3 -87
70 0 66 4 70 81 70 l69 0 0 -39z m2085 -18 c4 -31 9 -62 12 -70 4 -10 -12 -13
-76 -13 l-81 0 0 70 0 70 69 0 69 0 7 -57z m-1725 -253 l0 -70 -38 0 c-22 0
-80 3 -130 6 l-92 7 0 63 0 64 130 0 130 0 0 -70z m2085 0 c0 -77 5 -75 -142
-65 l-103 7 0 64 0 65 123 -3 122 -3 0 -65z m-1760 -127 c-16 -64 -34 -92 -62
-98 -119 -24 -207 -66 -287 -136 l-47 -42 -32 30 c-78 74 -174 121 -286 144
-45 8 -67 19 -81 37 -30 37 -26 56 9 49 16 -4 149 -11 295 -18 l265 -12 63 36
c50 29 74 36 117 37 53 0 53 0 46 -27z m2088 20 c3 -5 -4 -32 -15 -60 -19 -51
-21 -53 -56 -53 -102 -1 -239 -55 -337 -135 l-56 -46 -37 33 c-55 49 -129 93
-200 118 -41 15 -73 35 -92 57 -40 46 -39 57 8 49 20 -3 155 -11 298 -17 l261
-11 59 35 c46 28 70 36 111 36 28 1 54 -2 56 -6z m-2711 -255 c40 -19 93 -54
118 -76 l45 -42 -28 -25 c-15 -14 -35 -25 -42 -25 -8 0 -44 20 -80 45 -82 56
-128 68 -235 63 -121 -6 -169 -33 -292 -161 l-98 -101 0 66 0 67 73 74 c73 75
155 127 235 147 20 5 80 8 134 6 86 -3 104 -7 170 -38z m764 28 c68 -18 144
-60 196 -108 l41 -38 -23 -25 c-13 -14 -32 -25 -42 -25 -10 0 -47 20 -82 44
-87 60 -121 69 -230 64 -80 -3 -99 -8 -153 -37 -58 -31 -84 -55 -211 -195 -69
-76 -152 -103 -233 -74 -19 6 -61 29 -93 50 -132 85 -182 74 -310 -65 -78 -85
-187 -167 -223 -167 -9 0 -13 17 -13 53 1 50 2 53 42 77 22 14 64 54 93 90
156 195 291 227 452 109 57 -41 75 -49 112 -49 59 0 90 21 187 127 83 90 156
140 248 169 55 17 179 17 242 0z m1261 -30 c65 -31 93 -53 169 -133 113 -117
136 -133 196 -133 39 0 54 6 95 39 96 76 164 94 255 67 72 -21 125 -61 199
-150 33 -41 78 -87 100 -102 37 -25 39 -29 39 -80 0 -30 -3 -54 -7 -54 -30 0
-134 80 -223 170 -114 116 -139 129 -210 110 -21 -6 -65 -28 -99 -51 -65 -43
-107 -59 -158 -59 -66 0 -108 28 -212 139 -129 140 -188 173 -311 179 -107 5
-153 -7 -235 -63 -36 -25 -72 -45 -80 -45 -7 0 -27 11 -42 25 l-28 25 45 41
c49 45 138 94 198 109 20 5 80 8 134 6 87 -3 103 -6 175 -40z m837 1 c58 -27
96 -55 147 -106 l69 -69 0 -73 -1 -74 -31 40 c-60 77 -156 163 -209 191 -44
23 -71 28 -145 32 -109 5 -143 -4 -230 -64 -35 -24 -72 -44 -82 -44 -10 0 -29
11 -42 25 l-23 25 44 41 c90 84 191 119 329 116 87 -2 102 -6 174 -40z m-2111
-173 c17 -9 53 -34 81 -56 48 -38 53 -40 108 -36 l58 4 0 -52 c0 -45 -3 -52
-22 -58 -67 -18 -116 -2 -236 74 -101 64 -179 42 -278 -77 -56 -68 -114 -118
-175 -150 -38 -21 -56 -23 -189 -23 -143 0 -148 1 -206 30 -66 33 -148 104
-141 123 2 7 15 19 29 27 25 13 30 12 80 -20 134 -85 212 -105 309 -77 78 23
137 66 207 151 72 88 116 123 185 148 60 21 139 18 190 -8z m1204 -9 c36 -18
73 -50 116 -98 139 -159 193 -192 312 -192 86 1 122 13 210 70 37 25 74 45 80
45 7 0 23 -9 36 -19 l24 -20 -45 -46 c-25 -25 -72 -59 -104 -75 -58 -29 -63
-30 -210 -30 l-151 0 -64 37 c-40 24 -93 71 -147 130 -128 138 -182 150 -306
67 -62 -42 -117 -64 -163 -64 -58 0 -65 7 -65 64 l0 52 58 -4 c55 -3 59 -2
120 43 107 81 192 92 299 40z m-1232 -220 c80 -53 157 -78 223 -73 l47 3 3
-37 3 -38 -104 0 c-95 0 -109 2 -164 30 -33 17 -83 51 -109 76 l-49 45 25 19
c36 28 48 25 125 -25z m1145 27 c29 -23 20 -42 -44 -91 -87 -67 -127 -81 -243
-81 l-103 0 0 39 0 39 38 -5 c66 -9 143 14 228 67 43 28 83 50 90 50 6 0 22
-8 34 -18z m-2150 -142 l34 -30 -69 0 -69 0 29 30 c16 17 31 30 34 30 3 -1 22
-14 41 -30z m837 0 l34 -30 -68 0 -67 0 29 30 c16 17 31 30 33 30 2 0 20 -13
39 -30z m1438 0 l29 -30 -69 0 -69 0 34 30 c19 16 38 29 41 30 3 0 18 -13 34
-30z m865 -26 c0 -2 -30 -4 -67 -4 l-67 0 34 29 35 28 32 -24 c18 -14 33 -27
33 -29z m-1862 -991 c1 -277 -1 -503 -6 -503 -4 0 -24 11 -45 25 -50 34 -112
60 -180 75 -31 7 -57 17 -57 23 0 5 6 32 14 60 8 29 17 69 19 90 l6 37 -135 0
c-126 0 -137 -2 -174 -25 l-40 -25 0 65 0 65 179 0 180 0 -16 38 c-56 132 -56
252 0 385 l16 37 -387 -2 -387 -3 -20 -57 -19 -57 -110 -3 -109 -3 -15 -40
c-20 -53 -20 -197 0 -250 l15 -40 106 -3 107 -3 0 -59 0 -60 -32 0 c-18 0
-110 10 -206 21 -95 12 -175 19 -178 16 -3 -2 -6 -24 -7 -48 l-2 -44 87 -10
c48 -6 89 -13 91 -15 7 -9 27 -73 24 -77 -2 -2 -30 -10 -61 -18 -31 -8 -75
-24 -98 -36 -48 -25 -45 -28 -89 85 -62 161 -71 222 -76 544 -3 161 -2 299 1
307 5 13 104 15 803 13 l798 -3 3 -502z m2080 185 c-5 -355 -8 -374 -78 -556
-33 -86 -43 -100 -63 -84 -7 5 -43 21 -82 35 -46 17 -69 30 -66 39 25 88 41
157 41 180 l0 28 -127 0 c-118 -1 -131 -3 -168 -25 -22 -14 -43 -25 -47 -25
-5 0 -8 27 -8 60 l0 60 181 0 c168 0 181 1 176 18 -3 9 -15 44 -27 77 -32 86
-30 196 4 291 14 39 26 74 26 78 0 3 -171 6 -380 6 l-381 0 -19 -42 c-11 -24
-20 -51 -20 -60 0 -16 -12 -18 -111 -18 l-110 0 -17 -37 c-12 -28 -17 -66 -17
-138 0 -72 5 -110 17 -137 l17 -38 110 0 111 0 0 -61 0 -61 -67 6 c-38 4 -122
14 -188 22 -197 24 -179 26 -185 -28 l-6 -47 56 -7 c131 -16 131 -16 146 -59
7 -22 14 -43 14 -46 0 -3 -27 -9 -59 -12 -70 -8 -150 -36 -214 -77 -26 -16
-50 -30 -52 -30 -3 0 -5 227 -5 505 l0 505 801 0 801 0 -4 -322z m-713 65
c-13 -34 -17 -148 -7 -200 l9 -53 -112 0 -113 0 -11 44 c-14 56 -14 111 0 176
l11 50 115 0 c106 0 115 -1 108 -17z m330 -118 l0 -135 -108 0 c-93 0 -109 2
-115 18 -4 9 -7 62 -7 117 0 55 3 108 7 118 6 15 22 17 115 17 l108 0 0 -135z
m-2420 -15 l0 -130 -111 0 -111 0 -7 31 c-3 17 -6 62 -6 99 0 37 3 82 6 99 l7
31 111 0 111 0 0 -130z m331 65 c-6 -42 -6 -88 0 -130 l10 -65 -113 0 -113 0
-7 28 c-5 15 -8 61 -8 102 0 41 3 87 8 103 l7 27 113 0 113 0 -10 -65z m1418
-92 c4 -32 10 -66 12 -76 5 -16 -1 -18 -73 -15 l-78 3 -3 59 c-4 84 -3 86 72
86 l64 0 6 -57z m-2090 35 c3 -7 7 -41 10 -75 l6 -63 -74 0 c-82 0 -86 3 -86
68 0 77 5 82 76 82 43 0 66 -4 68 -12z m2456 -293 l0 -66 -122 3 -123 3 -3 63
-3 62 126 0 125 0 0 -65z m-2090 -15 l0 -70 -38 0 c-22 0 -80 3 -130 6 l-92 7
0 63 0 64 130 0 130 0 0 -70z m2403 -137 c-22 -66 -29 -73 -77 -73 -99 0 -239
-59 -324 -136 l-46 -41 -62 48 c-34 27 -92 63 -130 79 -122 54 -138 64 -158
99 l-20 34 75 -7 c41 -3 178 -9 304 -13 l230 -6 55 31 c44 25 67 32 112 32
l57 0 -16 -47z m-2073 29 c0 -5 -7 -29 -15 -53 l-16 -45 -66 -11 c-83 -15
-192 -68 -258 -126 l-49 -44 -61 49 c-91 74 -216 128 -297 128 -27 0 -58 31
-58 58 0 11 8 13 29 9 16 -4 149 -11 295 -18 l265 -11 63 36 c50 28 74 35 116
36 28 0 52 -4 52 -8z m-671 -224 c83 -31 191 -108 191 -137 0 -11 -48 -51 -62
-51 -5 0 -37 19 -71 43 -34 24 -75 49 -91 55 -69 30 -209 24 -279 -13 -26 -13
-28 -13 -52 23 -14 20 -25 40 -25 43 0 10 98 48 150 59 63 12 173 2 239 -22z
m835 2 c58 -20 112 -52 166 -98 29 -26 33 -33 24 -49 -6 -10 -22 -24 -35 -32
-23 -13 -29 -11 -92 32 -178 122 -363 97 -517 -71 -133 -144 -142 -152 -196
-168 -67 -19 -107 -12 -181 33 -93 56 -130 73 -161 73 -20 0 -40 12 -71 44
l-43 43 33 12 c83 29 179 5 264 -65 55 -44 106 -54 159 -29 20 10 71 56 113
102 106 116 187 167 308 193 55 12 164 3 229 -20z m1129 15 c107 -22 178 -66
271 -168 89 -97 146 -137 195 -137 38 0 60 10 124 61 52 42 100 59 163 59 43
0 104 -17 104 -29 0 -4 -15 -22 -34 -40 -24 -23 -49 -36 -83 -42 -26 -5 -68
-23 -93 -39 -161 -107 -261 -99 -367 27 -82 98 -142 151 -211 185 -61 30 -75
33 -157 33 -102 -1 -146 -16 -228 -78 -26 -21 -53 -37 -60 -37 -6 0 -25 12
-41 26 l-29 25 38 39 c49 50 139 98 218 115 81 18 108 18 190 0z m838 1 c37
-8 86 -24 108 -36 l42 -21 -28 -38 -27 -38 -46 21 c-35 16 -65 20 -135 20
-102 0 -146 -15 -228 -77 -26 -21 -53 -37 -60 -37 -6 0 -25 11 -42 25 l-30 25
49 46 c61 56 129 92 210 109 80 17 107 18 187 1z m-2026 -205 c22 -10 65 -38
95 -61 48 -36 60 -41 95 -37 22 2 48 7 58 12 16 7 18 2 15 -51 -3 -58 -3 -58
-39 -67 -51 -12 -102 4 -188 59 -85 55 -139 65 -194 39 -20 -9 -74 -58 -121
-109 -46 -50 -100 -100 -118 -110 -34 -18 -36 -18 -103 4 l-68 23 52 24 c56
27 91 59 183 165 101 116 228 158 333 109z m1221 -9 c23 -12 84 -67 138 -125
66 -71 115 -114 153 -135 l56 -30 -57 -21 c-31 -11 -64 -21 -73 -21 -26 0
-110 70 -160 134 -54 69 -123 116 -169 116 -43 0 -77 -14 -149 -60 -70 -45
-131 -63 -180 -54 l-35 6 0 58 0 57 38 -10 c51 -14 76 -6 146 47 32 24 73 49
90 55 48 16 155 7 202 -17z m-1235 -223 c79 -53 127 -69 211 -69 l69 0 -3 -47
-3 -48 -40 -3 c-100 -9 -242 44 -331 122 -49 43 -49 44 -30 65 28 31 60 26
127 -20z m1157 23 l23 -18 -51 -48 c-83 -78 -227 -132 -328 -124 -37 3 -37 4
-40 51 l-3 47 63 0 c85 0 123 12 204 65 74 49 97 54 132 27z m-1213 -217 c75
-42 158 -65 255 -69 l75 -4 3 -36 c2 -20 -1 -36 -6 -36 -5 0 -41 13 -80 29
-39 16 -111 41 -159 56 -48 15 -139 42 -202 62 l-114 35 39 37 39 37 45 -39
c24 -21 72 -54 105 -72z m1372 38 c-1 0 -99 -31 -217 -68 -118 -36 -243 -79
-277 -95 l-63 -29 0 42 0 42 74 2 c129 2 260 53 351 136 l50 44 41 -36 c23
-20 41 -37 41 -38z"/>
<path d="M6573 726 c-163 -53 -255 -182 -257 -356 0 -75 3 -93 31 -152 38 -80
97 -142 168 -174 190 -87 399 -21 496 158 33 60 34 67 34 168 0 99 -2 109 -33
172 -61 123 -167 190 -312 195 -53 2 -101 -2 -127 -11z m224 -104 c57 -30 102
-78 131 -141 21 -45 24 -64 20 -125 -3 -39 -12 -86 -22 -103 -50 -97 -139
-153 -244 -153 -78 0 -124 19 -181 73 -59 57 -84 116 -84 197 -1 127 74 232
193 271 42 14 142 3 187 -19z"/>
<path d="M8338 731 c-117 -38 -170 -158 -119 -265 25 -51 39 -62 181 -136 88
-46 108 -61 123 -92 16 -33 17 -40 3 -72 -39 -93 -202 -84 -323 18 -18 15 -33
26 -33 24 0 -31 25 -127 37 -140 28 -31 118 -58 196 -58 157 0 249 102 223
245 -11 58 -64 106 -181 165 -122 62 -149 87 -149 135 0 94 123 121 249 55
l55 -29 0 55 0 55 -47 21 c-52 23 -170 33 -215 19z"/>
<path d="M6 718 c4 -7 18 -27 32 -45 l24 -32 121 -3 122 -3 3 -307 2 -308 45
0 45 0 0 310 0 310 155 0 155 0 -32 45 -32 45 -324 0 c-256 0 -322 -3 -316
-12z"/>
<path d="M877 723 c-4 -3 -7 -163 -7 -355 l0 -348 50 0 50 0 2 182 3 183 160
-182 160 -183 64 0 63 0 -63 71 c-35 40 -94 106 -131 148 l-67 76 37 19 c79
39 122 105 122 186 0 93 -58 167 -152 195 -52 15 -278 22 -291 8z m266 -97
c46 -19 69 -49 74 -98 5 -54 -23 -103 -72 -124 -19 -8 -66 -14 -105 -14 l-70
0 0 125 0 125 70 0 c39 0 85 -6 103 -14z"/>
<path d="M1640 376 l0 -356 50 0 50 0 -2 353 -3 352 -47 3 -48 3 0 -355z"/>
<path d="M2050 375 l0 -355 45 0 45 0 2 281 3 280 250 -285 c147 -168 257
-286 268 -286 16 0 17 24 17 360 l0 360 -45 0 -45 0 0 -251 c0 -138 -4 -249
-8 -247 -5 2 -107 114 -226 251 l-218 247 -44 0 -44 0 0 -355z"/>
<path d="M2997 723 c-4 -3 -7 -163 -7 -355 l0 -348 50 0 50 0 0 355 0 355 -43
0 c-24 0 -47 -3 -50 -7z"/>
<path d="M3306 718 c4 -7 18 -27 32 -45 l24 -32 121 -3 122 -3 3 -307 2 -308
45 0 45 0 0 310 0 310 155 0 155 0 -32 45 -32 45 -324 0 c-256 0 -322 -3 -316
-12z"/>
<path d="M4138 703 c10 -16 73 -105 140 -200 l122 -172 0 -156 0 -155 45 0 45
0 0 154 0 153 140 199 140 199 -51 3 c-28 2 -56 -1 -62 -7 -7 -5 -55 -73 -107
-150 -52 -77 -98 -141 -101 -141 -4 0 -53 67 -110 150 l-103 150 -58 0 -59 0
19 -27z"/>
<path d="M5420 375 l0 -355 50 0 50 0 0 160 0 160 213 -2 212 -3 3 -157 3
-158 44 0 45 0 0 355 0 355 -45 0 -45 0 0 -150 0 -150 -215 0 -215 0 0 150 0
150 -50 0 -50 0 0 -355z"/>
<path d="M7310 508 c0 -245 10 -311 54 -378 58 -89 145 -125 279 -118 70 4 93
9 138 34 59 33 111 99 129 162 5 21 10 145 10 280 l0 242 -45 0 -45 0 0 -222
c0 -238 -6 -282 -47 -337 -72 -94 -254 -94 -326 0 -41 55 -47 99 -47 337 l0
222 -50 0 -50 0 0 -222z"/>
<path d="M8907 723 c-4 -3 -7 -163 -7 -355 l0 -348 189 0 188 0 27 40 c14 22
26 42 26 45 0 3 -74 5 -165 5 l-166 0 3 113 3 112 138 3 137 3 0 39 0 39 -137
3 -138 3 -3 107 -3 108 166 2 166 3 -31 43 -32 42 -177 0 c-98 0 -181 -3 -184
-7z"/>
</g>
</svg>
